solid test-key-cap-round
facet normal 0.2588190451025193 0.9659258262890688 -3.6835519592656353e-19
  outer loop
    vertex 13.944093884679724 27.57850554486193 12.00000000000001
    vertex 14.607341510647792 27.3037793829742 7.00000000000001
    vertex 13.944093884679724 27.57850554486193 7.00000000000001
  endloop
endfacet
facet normal 0.5000000000000016 0.8660254037844377 1.71797270448987e-18
  outer loop
    vertex 14.607341510647792 27.3037793829742 7.00000000000001
    vertex 13.944093884679724 27.57850554486193 12.00000000000001
    vertex 14.607341510647792 27.3037793829742 12.00000000000001
  endloop
endfacet
facet normal -1.0 0.0 0.0
  outer loop
    vertex 15.732341510647794 25.52220952256699 12.00000000000001
    vertex 15.732341510647794 24.32220952256699 8.000000000000009
    vertex 15.732341510647794 24.32220952256699 12.00000000000001
  endloop
endfacet
facet normal -1.0 0.0 0.0
  outer loop
    vertex 15.732341510647794 24.32220952256699 8.000000000000009
    vertex 15.732341510647794 25.52220952256699 12.00000000000001
    vertex 15.732341510647794 25.52220952256699 8.000000000000009
  endloop
endfacet
facet normal 0.8660254037844384 -0.5000000000000006 0.0
  outer loop
    vertex 15.613911371055002 23.54720952256699 7.00000000000001
    vertex 15.176885158910798 22.977665874303984 12.00000000000001
    vertex 15.176885158910798 22.977665874303984 7.00000000000001
  endloop
endfacet
facet normal 0.7071067811865492 -0.7071067811865458 0.0
  outer loop
    vertex 15.176885158910798 22.977665874303984 12.00000000000001
    vertex 15.613911371055002 23.54720952256699 7.00000000000001
    vertex 15.613911371055002 23.54720952256699 12.00000000000001
  endloop
endfacet
facet normal 0.965925826289068 0.25881904510252224 -1.303630407133089e-18
  outer loop
    vertex 15.888637532942733 25.633961896598926 7.00000000000001
    vertex 15.982341510647792 24.92220952256699 12.00000000000001
    vertex 15.982341510647792 24.92220952256699 7.00000000000001
  endloop
endfacet
facet normal 1.0 -5.257554838431672e-16 0.0
  outer loop
    vertex 15.982341510647792 24.92220952256699 12.00000000000001
    vertex 15.888637532942733 25.633961896598926 7.00000000000001
    vertex 15.888637532942733 25.633961896598926 12.00000000000001
  endloop
endfacet
facet normal 0.9659258262890685 -0.25881904510251946 0.0
  outer loop
    vertex 15.888637532942733 24.21045714853506 7.00000000000001
    vertex 15.613911371055002 23.54720952256699 12.00000000000001
    vertex 15.613911371055002 23.54720952256699 7.00000000000001
  endloop
endfacet
facet normal 0.8660254037844384 -0.5000000000000006 0.0
  outer loop
    vertex 15.613911371055002 23.54720952256699 12.00000000000001
    vertex 15.888637532942733 24.21045714853506 7.00000000000001
    vertex 15.888637532942733 24.21045714853506 12.00000000000001
  endloop
endfacet
facet normal 1.0 -5.257554838431672e-16 0.0
  outer loop
    vertex 15.982341510647792 24.92220952256699 7.00000000000001
    vertex 15.888637532942733 24.21045714853506 12.00000000000001
    vertex 15.888637532942733 24.21045714853506 7.00000000000001
  endloop
endfacet
facet normal 0.9659258262890685 -0.25881904510251946 0.0
  outer loop
    vertex 15.888637532942733 24.21045714853506 12.00000000000001
    vertex 15.982341510647792 24.92220952256699 7.00000000000001
    vertex 15.982341510647792 24.92220952256699 12.00000000000001
  endloop
endfacet
facet normal 0.7071067811865496 0.7071067811865456 1.7179727044899328e-18
  outer loop
    vertex 15.176885158910798 26.866753170829995 7.00000000000001
    vertex 15.613911371054998 26.297209522566988 12.00000000000001
    vertex 15.613911371054998 26.297209522566988 7.00000000000001
  endloop
endfacet
facet normal 0.8660254037844376 0.5000000000000021 -1.3036304071330242e-18
  outer loop
    vertex 15.613911371054998 26.297209522566988 12.00000000000001
    vertex 15.176885158910798 26.866753170829995 7.00000000000001
    vertex 15.176885158910798 26.866753170829995 12.00000000000001
  endloop
endfacet
facet normal 0.7071067811865492 -0.7071067811865458 0.0
  outer loop
    vertex 15.176885158910798 22.977665874303984 12.00000000000001
    vertex 14.607341510647796 22.54063966215978 7.00000000000001
    vertex 15.176885158910798 22.977665874303984 7.00000000000001
  endloop
endfacet
facet normal 0.5000000000000027 -0.8660254037844372 0.0
  outer loop
    vertex 14.607341510647796 22.54063966215978 7.00000000000001
    vertex 15.176885158910798 22.977665874303984 12.00000000000001
    vertex 14.607341510647796 22.54063966215978 12.00000000000001
  endloop
endfacet
facet normal 0.8660254037844376 0.5000000000000021 -1.3036304071330242e-18
  outer loop
    vertex 15.613911371054998 26.297209522566988 7.00000000000001
    vertex 15.888637532942733 25.633961896598926 12.00000000000001
    vertex 15.888637532942733 25.633961896598926 7.00000000000001
  endloop
endfacet
facet normal 0.965925826289068 0.25881904510252224 -1.303630407133089e-18
  outer loop
    vertex 15.888637532942733 25.633961896598926 12.00000000000001
    vertex 15.613911371054998 26.297209522566988 7.00000000000001
    vertex 15.613911371054998 26.297209522566988 12.00000000000001
  endloop
endfacet
facet normal -0.0 -0.0 1.0
  outer loop
    vertex 13.232341510647792 22.172209522566988 12.00000000000001
    vertex 12.632341510647793 22.422209522566988 12.00000000000001
    vertex 12.520589136615861 22.26591350027205 12.00000000000001
  endloop
endfacet
facet normal -0.0 -0.0 1.0
  outer loop
    vertex 12.632341510647793 22.422209522566988 12.00000000000001
    vertex 13.232341510647792 22.172209522566988 12.00000000000001
    vertex 13.832341510647792 22.422209522566988 12.00000000000001
  endloop
endfacet
facet normal -0.0 -0.0 1.0
  outer loop
    vertex 13.832341510647792 22.422209522566988 12.00000000000001
    vertex 13.232341510647792 22.172209522566988 12.00000000000001
    vertex 13.944093884679727 22.26591350027205 12.00000000000001
  endloop
endfacet
facet normal -0.0 -0.0 1.0
  outer loop
    vertex 13.832341510647792 22.422209522566988 12.00000000000001
    vertex 13.944093884679727 22.26591350027205 12.00000000000001
    vertex 13.832341510647792 24.32220952256699 12.00000000000001
  endloop
endfacet
facet normal -0.0 -0.0 1.0
  outer loop
    vertex 13.832341510647792 24.32220952256699 12.00000000000001
    vertex 13.944093884679727 22.26591350027205 12.00000000000001
    vertex 15.732341510647794 24.32220952256699 12.00000000000001
  endloop
endfacet
facet normal -0.0 -0.0 1.0
  outer loop
    vertex 15.732341510647794 24.32220952256699 12.00000000000001
    vertex 13.944093884679727 22.26591350027205 12.00000000000001
    vertex 14.607341510647796 22.54063966215978 12.00000000000001
  endloop
endfacet
facet normal -0.0 -0.0 1.0
  outer loop
    vertex 15.732341510647794 24.32220952256699 12.00000000000001
    vertex 14.607341510647796 22.54063966215978 12.00000000000001
    vertex 15.176885158910798 22.977665874303984 12.00000000000001
  endloop
endfacet
facet normal -0.0 -0.0 1.0
  outer loop
    vertex 15.732341510647794 24.32220952256699 12.00000000000001
    vertex 15.176885158910798 22.977665874303984 12.00000000000001
    vertex 15.613911371055002 23.54720952256699 12.00000000000001
  endloop
endfacet
facet normal -0.0 -0.0 1.0
  outer loop
    vertex 15.732341510647794 24.32220952256699 12.00000000000001
    vertex 15.613911371055002 23.54720952256699 12.00000000000001
    vertex 15.888637532942733 24.21045714853506 12.00000000000001
  endloop
endfacet
facet normal -0.0 -0.0 1.0
  outer loop
    vertex 15.732341510647794 24.32220952256699 12.00000000000001
    vertex 15.888637532942733 24.21045714853506 12.00000000000001
    vertex 15.732341510647794 25.52220952256699 12.00000000000001
  endloop
endfacet
facet normal -0.0 -0.0 1.0
  outer loop
    vertex 15.732341510647794 25.52220952256699 12.00000000000001
    vertex 13.832341510647792 27.42220952256699 12.00000000000001
    vertex 13.832341510647792 25.52220952256699 12.00000000000001
  endloop
endfacet
facet normal -0.0 -0.0 1.0
  outer loop
    vertex 13.832341510647792 27.42220952256699 12.00000000000001
    vertex 15.732341510647794 25.52220952256699 12.00000000000001
    vertex 13.944093884679724 27.57850554486193 12.00000000000001
  endloop
endfacet
facet normal -0.0 -0.0 1.0
  outer loop
    vertex 13.944093884679724 27.57850554486193 12.00000000000001
    vertex 15.732341510647794 25.52220952256699 12.00000000000001
    vertex 14.607341510647792 27.3037793829742 12.00000000000001
  endloop
endfacet
facet normal -0.0 -0.0 1.0
  outer loop
    vertex 14.607341510647792 27.3037793829742 12.00000000000001
    vertex 15.732341510647794 25.52220952256699 12.00000000000001
    vertex 15.176885158910798 26.866753170829995 12.00000000000001
  endloop
endfacet
facet normal -0.0 -0.0 1.0
  outer loop
    vertex 15.176885158910798 26.866753170829995 12.00000000000001
    vertex 15.732341510647794 25.52220952256699 12.00000000000001
    vertex 15.613911371054998 26.297209522566988 12.00000000000001
  endloop
endfacet
facet normal -0.0 -0.0 1.0
  outer loop
    vertex 15.613911371054998 26.297209522566988 12.00000000000001
    vertex 15.732341510647794 25.52220952256699 12.00000000000001
    vertex 15.888637532942733 25.633961896598926 12.00000000000001
  endloop
endfacet
facet normal -0.0 -0.0 1.0
  outer loop
    vertex 15.888637532942733 25.633961896598926 12.00000000000001
    vertex 15.732341510647794 25.52220952256699 12.00000000000001
    vertex 15.888637532942733 24.21045714853506 12.00000000000001
  endloop
endfacet
facet normal -0.0 -0.0 1.0
  outer loop
    vertex 15.888637532942733 25.633961896598926 12.00000000000001
    vertex 15.888637532942733 24.21045714853506 12.00000000000001
    vertex 15.982341510647792 24.92220952256699 12.00000000000001
  endloop
endfacet
facet normal -0.0 -0.0 1.0
  outer loop
    vertex 10.576045488352854 25.63396189659892 12.00000000000001
    vertex 10.732341510647794 25.52220952256699 12.00000000000001
    vertex 10.850771650240585 26.297209522566988 12.00000000000001
  endloop
endfacet
facet normal -0.0 -0.0 1.0
  outer loop
    vertex 10.732341510647794 25.52220952256699 12.00000000000001
    vertex 10.576045488352854 25.63396189659892 12.00000000000001
    vertex 10.732341510647794 24.32220952256699 12.00000000000001
  endloop
endfacet
facet normal -0.0 -0.0 1.0
  outer loop
    vertex 10.850771650240585 26.297209522566988 12.00000000000001
    vertex 10.732341510647794 25.52220952256699 12.00000000000001
    vertex 12.632341510647793 25.52220952256699 12.00000000000001
  endloop
endfacet
facet normal -0.0 -0.0 1.0
  outer loop
    vertex 10.850771650240585 26.297209522566988 12.00000000000001
    vertex 12.632341510647793 25.52220952256699 12.00000000000001
    vertex 11.287797862384785 26.866753170829995 12.00000000000001
  endloop
endfacet
facet normal -0.0 -0.0 1.0
  outer loop
    vertex 11.287797862384785 26.866753170829995 12.00000000000001
    vertex 12.632341510647793 25.52220952256699 12.00000000000001
    vertex 11.857341510647789 27.3037793829742 12.00000000000001
  endloop
endfacet
facet normal -0.0 -0.0 1.0
  outer loop
    vertex 11.857341510647789 27.3037793829742 12.00000000000001
    vertex 12.632341510647793 25.52220952256699 12.00000000000001
    vertex 12.520589136615857 27.57850554486193 12.00000000000001
  endloop
endfacet
facet normal -0.0 -0.0 1.0
  outer loop
    vertex 12.520589136615857 27.57850554486193 12.00000000000001
    vertex 12.632341510647793 25.52220952256699 12.00000000000001
    vertex 12.632341510647793 27.42220952256699 12.00000000000001
  endloop
endfacet
facet normal -0.0 -0.0 1.0
  outer loop
    vertex 12.520589136615857 27.57850554486193 12.00000000000001
    vertex 12.632341510647793 27.42220952256699 12.00000000000001
    vertex 13.232341510647792 27.67220952256699 12.00000000000001
  endloop
endfacet
facet normal -0.0 -0.0 1.0
  outer loop
    vertex 13.232341510647792 27.67220952256699 12.00000000000001
    vertex 12.632341510647793 27.42220952256699 12.00000000000001
    vertex 13.832341510647792 27.42220952256699 12.00000000000001
  endloop
endfacet
facet normal -0.0 -0.0 1.0
  outer loop
    vertex 13.232341510647792 27.67220952256699 12.00000000000001
    vertex 13.832341510647792 27.42220952256699 12.00000000000001
    vertex 13.944093884679724 27.57850554486193 12.00000000000001
  endloop
endfacet
facet normal -0.0 -0.0 1.0
  outer loop
    vertex 10.576045488352854 24.210457148535056 12.00000000000001
    vertex 10.576045488352854 25.63396189659892 12.00000000000001
    vertex 10.482341510647792 24.92220952256699 12.00000000000001
  endloop
endfacet
facet normal -0.0 -0.0 1.0
  outer loop
    vertex 10.576045488352854 25.63396189659892 12.00000000000001
    vertex 10.576045488352854 24.210457148535056 12.00000000000001
    vertex 10.732341510647794 24.32220952256699 12.00000000000001
  endloop
endfacet
facet normal -0.0 -0.0 1.0
  outer loop
    vertex 10.732341510647794 24.32220952256699 12.00000000000001
    vertex 10.576045488352854 24.210457148535056 12.00000000000001
    vertex 10.850771650240587 23.547209522566988 12.00000000000001
  endloop
endfacet
facet normal -0.0 -0.0 1.0
  outer loop
    vertex 10.732341510647794 24.32220952256699 12.00000000000001
    vertex 10.850771650240587 23.547209522566988 12.00000000000001
    vertex 12.632341510647793 24.32220952256699 12.00000000000001
  endloop
endfacet
facet normal -0.0 -0.0 1.0
  outer loop
    vertex 12.632341510647793 24.32220952256699 12.00000000000001
    vertex 10.850771650240587 23.547209522566988 12.00000000000001
    vertex 11.287797862384787 22.977665874303984 12.00000000000001
  endloop
endfacet
facet normal -0.0 -0.0 1.0
  outer loop
    vertex 12.632341510647793 24.32220952256699 12.00000000000001
    vertex 11.287797862384787 22.977665874303984 12.00000000000001
    vertex 11.857341510647792 22.54063966215978 12.00000000000001
  endloop
endfacet
facet normal -0.0 -0.0 1.0
  outer loop
    vertex 12.632341510647793 24.32220952256699 12.00000000000001
    vertex 11.857341510647792 22.54063966215978 12.00000000000001
    vertex 12.520589136615861 22.26591350027205 12.00000000000001
  endloop
endfacet
facet normal -0.0 -0.0 1.0
  outer loop
    vertex 12.632341510647793 24.32220952256699 12.00000000000001
    vertex 12.520589136615861 22.26591350027205 12.00000000000001
    vertex 12.632341510647793 22.422209522566988 12.00000000000001
  endloop
endfacet
facet normal 0.5000000000000016 0.8660254037844377 1.71797270448987e-18
  outer loop
    vertex 14.607341510647792 27.3037793829742 12.00000000000001
    vertex 15.176885158910798 26.866753170829995 7.00000000000001
    vertex 14.607341510647792 27.3037793829742 7.00000000000001
  endloop
endfacet
facet normal 0.7071067811865496 0.7071067811865456 1.7179727044899328e-18
  outer loop
    vertex 15.176885158910798 26.866753170829995 7.00000000000001
    vertex 14.607341510647792 27.3037793829742 12.00000000000001
    vertex 15.176885158910798 26.866753170829995 12.00000000000001
  endloop
endfacet
facet normal -0.5000000000000001 -0.8660254037844386 0.0
  outer loop
    vertex 8.937924128231867 17.39255407636956 8.000000000000012
    vertex 7.107341510647792 18.79720952256699 5.000000000000013
    vertex 8.937924128231867 17.39255407636956 5.000000000000013
  endloop
endfacet
facet normal -0.7071067811865475 -0.7071067811865477 0.0
  outer loop
    vertex 7.107341510647792 18.79720952256699 5.000000000000013
    vertex 8.937924128231867 17.39255407636956 8.000000000000012
    vertex 7.107341510647792 18.79720952256699 8.000000000000012
  endloop
endfacet
facet normal -0.8660254037844386 -0.5 0.0
  outer loop
    vertex 5.70268606445036 20.62779214015107 8.000000000000012
    vertex 7.107341510647792 18.79720952256699 5.000000000000013
    vertex 7.107341510647792 18.79720952256699 8.000000000000012
  endloop
endfacet
facet normal -0.7071067811865475 -0.7071067811865477 0.0
  outer loop
    vertex 7.107341510647792 18.79720952256699 5.000000000000013
    vertex 5.70268606445036 20.62779214015107 8.000000000000012
    vertex 5.70268606445036 20.62779214015107 5.000000000000013
  endloop
endfacet
facet normal -0.9659258262890685 -0.2588190451025203 0.0
  outer loop
    vertex 4.819682736995048 22.75955074891425 8.000000000000012
    vertex 5.70268606445036 20.62779214015107 5.000000000000013
    vertex 5.70268606445036 20.62779214015107 8.000000000000012
  endloop
endfacet
facet normal -0.8660254037844386 -0.5 0.0
  outer loop
    vertex 5.70268606445036 20.62779214015107 5.000000000000013
    vertex 4.819682736995048 22.75955074891425 8.000000000000012
    vertex 4.819682736995048 22.75955074891425 5.000000000000013
  endloop
endfacet
facet normal -1.0 4.455554947823453e-16 0.0
  outer loop
    vertex 4.518506745815949 25.04720952256699 8.000000000000012
    vertex 4.819682736995048 22.75955074891425 5.000000000000013
    vertex 4.819682736995048 22.75955074891425 8.000000000000012
  endloop
endfacet
facet normal -0.9659258262890685 -0.2588190451025203 0.0
  outer loop
    vertex 4.819682736995048 22.75955074891425 5.000000000000013
    vertex 4.518506745815949 25.04720952256699 8.000000000000012
    vertex 4.518506745815949 25.04720952256699 5.000000000000013
  endloop
endfacet
facet normal -0.9659258262890682 0.25881904510252085 0.0
  outer loop
    vertex 4.819682736995052 27.33486829621973 8.000000000000012
    vertex 4.518506745815949 25.04720952256699 5.000000000000013
    vertex 4.518506745815949 25.04720952256699 8.000000000000012
  endloop
endfacet
facet normal -1.0 4.455554947823453e-16 0.0
  outer loop
    vertex 4.518506745815949 25.04720952256699 5.000000000000013
    vertex 4.819682736995052 27.33486829621973 8.000000000000012
    vertex 4.819682736995052 27.33486829621973 5.000000000000013
  endloop
endfacet
facet normal -0.8660254037844388 0.4999999999999999 0.0
  outer loop
    vertex 5.702686064450361 29.46662690498291 8.000000000000012
    vertex 4.819682736995052 27.33486829621973 5.000000000000013
    vertex 4.819682736995052 27.33486829621973 8.000000000000012
  endloop
endfacet
facet normal -0.9659258262890682 0.25881904510252085 0.0
  outer loop
    vertex 4.819682736995052 27.33486829621973 5.000000000000013
    vertex 5.702686064450361 29.46662690498291 8.000000000000012
    vertex 5.702686064450361 29.46662690498291 5.000000000000013
  endloop
endfacet
facet normal -0.7071067811865479 0.7071067811865471 0.0
  outer loop
    vertex 7.107341510647792 31.297209522566988 8.000000000000012
    vertex 5.702686064450361 29.46662690498291 5.000000000000013
    vertex 5.702686064450361 29.46662690498291 8.000000000000012
  endloop
endfacet
facet normal -0.8660254037844388 0.4999999999999999 0.0
  outer loop
    vertex 5.702686064450361 29.46662690498291 5.000000000000013
    vertex 7.107341510647792 31.297209522566988 8.000000000000012
    vertex 7.107341510647792 31.297209522566988 5.000000000000013
  endloop
endfacet
facet normal -0.7071067811865479 0.7071067811865471 0.0
  outer loop
    vertex 7.107341510647792 31.297209522566988 8.000000000000012
    vertex 8.937924128231872 32.701864968764426 5.000000000000013
    vertex 7.107341510647792 31.297209522566988 5.000000000000013
  endloop
endfacet
facet normal -0.5000000000000002 0.8660254037844385 0.0
  outer loop
    vertex 8.937924128231872 32.701864968764426 5.000000000000013
    vertex 7.107341510647792 31.297209522566988 8.000000000000012
    vertex 8.937924128231872 32.701864968764426 8.000000000000012
  endloop
endfacet
facet normal -0.5000000000000002 0.8660254037844385 0.0
  outer loop
    vertex 8.937924128231872 32.701864968764426 8.000000000000012
    vertex 11.069682736995052 33.58486829621973 5.000000000000013
    vertex 8.937924128231872 32.701864968764426 5.000000000000013
  endloop
endfacet
facet normal -0.2588190451025203 0.9659258262890684 0.0
  outer loop
    vertex 11.069682736995052 33.58486829621973 5.000000000000013
    vertex 8.937924128231872 32.701864968764426 8.000000000000012
    vertex 11.069682736995052 33.58486829621973 8.000000000000012
  endloop
endfacet
facet normal -0.2588190451025203 0.9659258262890684 0.0
  outer loop
    vertex 11.069682736995052 33.58486829621973 8.000000000000012
    vertex 13.357341510647792 33.88604428739883 5.000000000000013
    vertex 11.069682736995052 33.58486829621973 5.000000000000013
  endloop
endfacet
facet normal 0.0 1.0 0.0
  outer loop
    vertex 13.357341510647792 33.88604428739883 5.000000000000013
    vertex 11.069682736995052 33.58486829621973 8.000000000000012
    vertex 13.357341510647792 33.88604428739883 8.000000000000012
  endloop
endfacet
facet normal 0.0 1.0 0.0
  outer loop
    vertex 13.357341510647792 33.88604428739883 8.000000000000012
    vertex 15.645000284300533 33.58486829621973 5.000000000000013
    vertex 13.357341510647792 33.88604428739883 5.000000000000013
  endloop
endfacet
facet normal 0.2588190451025202 0.9659258262890685 0.0
  outer loop
    vertex 15.645000284300533 33.58486829621973 5.000000000000013
    vertex 13.357341510647792 33.88604428739883 8.000000000000012
    vertex 15.645000284300533 33.58486829621973 8.000000000000012
  endloop
endfacet
facet normal 0.2588190451025202 0.9659258262890685 0.0
  outer loop
    vertex 15.645000284300533 33.58486829621973 8.000000000000012
    vertex 17.776758893063715 32.701864968764426 5.000000000000013
    vertex 15.645000284300533 33.58486829621973 5.000000000000013
  endloop
endfacet
facet normal 0.5000000000000002 0.8660254037844385 0.0
  outer loop
    vertex 17.776758893063715 32.701864968764426 5.000000000000013
    vertex 15.645000284300533 33.58486829621973 8.000000000000012
    vertex 17.776758893063715 32.701864968764426 8.000000000000012
  endloop
endfacet
facet normal 0.5000000000000002 0.8660254037844385 0.0
  outer loop
    vertex 17.776758893063715 32.701864968764426 8.000000000000012
    vertex 19.607341510647792 31.297209522566988 5.000000000000013
    vertex 17.776758893063715 32.701864968764426 5.000000000000013
  endloop
endfacet
facet normal 0.707106781186548 0.707106781186547 0.0
  outer loop
    vertex 19.607341510647792 31.297209522566988 5.000000000000013
    vertex 17.776758893063715 32.701864968764426 8.000000000000012
    vertex 19.607341510647792 31.297209522566988 8.000000000000012
  endloop
endfacet
facet normal 0.707106781186548 0.707106781186547 0.0
  outer loop
    vertex 19.607341510647792 31.297209522566988 5.000000000000013
    vertex 21.011996956845227 29.466626904982906 8.000000000000012
    vertex 21.011996956845227 29.466626904982906 5.000000000000013
  endloop
endfacet
facet normal 0.8660254037844388 0.49999999999999983 0.0
  outer loop
    vertex 21.011996956845227 29.466626904982906 8.000000000000012
    vertex 19.607341510647792 31.297209522566988 5.000000000000013
    vertex 19.607341510647792 31.297209522566988 8.000000000000012
  endloop
endfacet
facet normal 0.8660254037844388 0.49999999999999983 0.0
  outer loop
    vertex 21.011996956845227 29.466626904982906 5.000000000000013
    vertex 21.895000284300536 27.334868296219728 8.000000000000012
    vertex 21.895000284300536 27.334868296219728 5.000000000000013
  endloop
endfacet
facet normal 0.9659258262890684 0.25881904510252046 0.0
  outer loop
    vertex 21.895000284300536 27.334868296219728 8.000000000000012
    vertex 21.011996956845227 29.466626904982906 5.000000000000013
    vertex 21.011996956845227 29.466626904982906 8.000000000000012
  endloop
endfacet
facet normal 0.9659258262890684 0.25881904510252046 0.0
  outer loop
    vertex 21.895000284300536 27.334868296219728 5.000000000000013
    vertex 22.196176275479637 25.04720952256699 8.000000000000012
    vertex 22.196176275479637 25.04720952256699 5.000000000000013
  endloop
endfacet
facet normal 1.0 -2.85155516660701e-16 0.0
  outer loop
    vertex 22.196176275479637 25.04720952256699 8.000000000000012
    vertex 21.895000284300536 27.334868296219728 5.000000000000013
    vertex 21.895000284300536 27.334868296219728 8.000000000000012
  endloop
endfacet
facet normal 1.0 -2.85155516660701e-16 0.0
  outer loop
    vertex 22.196176275479637 25.04720952256699 5.000000000000013
    vertex 21.895000284300533 22.75955074891424 8.000000000000012
    vertex 21.895000284300533 22.75955074891424 5.000000000000013
  endloop
endfacet
facet normal 0.9659258262890681 -0.2588190451025213 0.0
  outer loop
    vertex 21.895000284300533 22.75955074891424 8.000000000000012
    vertex 22.196176275479637 25.04720952256699 5.000000000000013
    vertex 22.196176275479637 25.04720952256699 8.000000000000012
  endloop
endfacet
facet normal 0.9659258262890681 -0.2588190451025213 0.0
  outer loop
    vertex 21.895000284300533 22.75955074891424 5.000000000000013
    vertex 21.01199695684522 20.62779214015106 8.000000000000012
    vertex 21.01199695684522 20.62779214015106 5.000000000000013
  endloop
endfacet
facet normal 0.8660254037844383 -0.5000000000000007 0.0
  outer loop
    vertex 21.01199695684522 20.62779214015106 8.000000000000012
    vertex 21.895000284300533 22.75955074891424 5.000000000000013
    vertex 21.895000284300533 22.75955074891424 8.000000000000012
  endloop
endfacet
facet normal 0.8660254037844383 -0.5000000000000007 0.0
  outer loop
    vertex 21.01199695684522 20.62779214015106 5.000000000000013
    vertex 19.607341510647792 18.79720952256699 8.000000000000012
    vertex 19.607341510647792 18.79720952256699 5.000000000000013
  endloop
endfacet
facet normal 0.7071067811865471 -0.7071067811865479 0.0
  outer loop
    vertex 19.607341510647792 18.79720952256699 8.000000000000012
    vertex 21.01199695684522 20.62779214015106 5.000000000000013
    vertex 21.01199695684522 20.62779214015106 8.000000000000012
  endloop
endfacet
facet normal 0.7071067811865471 -0.7071067811865479 0.0
  outer loop
    vertex 19.607341510647792 18.79720952256699 8.000000000000012
    vertex 17.776758893063707 17.392554076369557 5.000000000000013
    vertex 19.607341510647792 18.79720952256699 5.000000000000013
  endloop
endfacet
facet normal 0.4999999999999997 -0.8660254037844389 0.0
  outer loop
    vertex 17.776758893063707 17.392554076369557 5.000000000000013
    vertex 19.607341510647792 18.79720952256699 8.000000000000012
    vertex 17.776758893063707 17.392554076369557 8.000000000000012
  endloop
endfacet
facet normal 0.4999999999999997 -0.8660254037844389 0.0
  outer loop
    vertex 17.776758893063707 17.392554076369557 8.000000000000012
    vertex 15.645000284300528 16.509550748914247 5.000000000000013
    vertex 17.776758893063707 17.392554076369557 5.000000000000013
  endloop
endfacet
facet normal 0.2588190451025202 -0.9659258262890685 0.0
  outer loop
    vertex 15.645000284300528 16.509550748914247 5.000000000000013
    vertex 17.776758893063707 17.392554076369557 8.000000000000012
    vertex 15.645000284300528 16.509550748914247 8.000000000000012
  endloop
endfacet
facet normal 0.2588190451025202 -0.9659258262890685 0.0
  outer loop
    vertex 15.645000284300528 16.509550748914247 8.000000000000012
    vertex 13.357341510647787 16.208374757735147 5.000000000000013
    vertex 15.645000284300528 16.509550748914247 5.000000000000013
  endloop
endfacet
facet normal -6.950665718604584e-16 -1.0 0.0
  outer loop
    vertex 13.357341510647787 16.208374757735147 5.000000000000013
    vertex 15.645000284300528 16.509550748914247 8.000000000000012
    vertex 13.357341510647787 16.208374757735147 8.000000000000012
  endloop
endfacet
facet normal -6.950665718604584e-16 -1.0 0.0
  outer loop
    vertex 13.357341510647787 16.208374757735147 8.000000000000012
    vertex 11.069682736995048 16.50955074891425 5.000000000000013
    vertex 13.357341510647787 16.208374757735147 5.000000000000013
  endloop
endfacet
facet normal -0.25881904510252124 -0.9659258262890682 0.0
  outer loop
    vertex 11.069682736995048 16.50955074891425 5.000000000000013
    vertex 13.357341510647787 16.208374757735147 8.000000000000012
    vertex 11.069682736995048 16.50955074891425 8.000000000000012
  endloop
endfacet
facet normal -0.25881904510252124 -0.9659258262890682 0.0
  outer loop
    vertex 11.069682736995048 16.50955074891425 8.000000000000012
    vertex 8.937924128231867 17.39255407636956 5.000000000000013
    vertex 11.069682736995048 16.50955074891425 5.000000000000013
  endloop
endfacet
facet normal -0.5000000000000001 -0.8660254037844386 0.0
  outer loop
    vertex 8.937924128231867 17.39255407636956 5.000000000000013
    vertex 11.069682736995048 16.50955074891425 8.000000000000012
    vertex 8.937924128231867 17.39255407636956 8.000000000000012
  endloop
endfacet
facet normal -0.0 -0.0 1.0
  outer loop
    vertex 13.357341510647787 16.208374757735147 8.000000000000012
    vertex 12.632341510647793 22.422209522566988 8.000000000000009
    vertex 11.069682736995048 16.50955074891425 8.000000000000012
  endloop
endfacet
facet normal -0.0 -0.0 1.0
  outer loop
    vertex 12.632341510647793 22.422209522566988 8.000000000000009
    vertex 13.357341510647787 16.208374757735147 8.000000000000012
    vertex 13.832341510647792 22.422209522566988 8.000000000000009
  endloop
endfacet
facet normal -0.0 -0.0 1.0
  outer loop
    vertex 13.832341510647792 22.422209522566988 8.000000000000009
    vertex 13.357341510647787 16.208374757735147 8.000000000000012
    vertex 15.645000284300528 16.509550748914247 8.000000000000012
  endloop
endfacet
facet normal -0.0 -0.0 1.0
  outer loop
    vertex 13.832341510647792 22.422209522566988 8.000000000000009
    vertex 15.645000284300528 16.509550748914247 8.000000000000012
    vertex 13.832341510647792 24.32220952256699 8.000000000000009
  endloop
endfacet
facet normal -0.0 -0.0 1.0
  outer loop
    vertex 13.832341510647792 24.32220952256699 8.000000000000009
    vertex 15.645000284300528 16.509550748914247 8.000000000000012
    vertex 15.732341510647794 24.32220952256699 8.000000000000009
  endloop
endfacet
facet normal -0.0 -0.0 1.0
  outer loop
    vertex 15.732341510647794 24.32220952256699 8.000000000000009
    vertex 15.645000284300528 16.509550748914247 8.000000000000012
    vertex 17.776758893063707 17.392554076369557 8.000000000000012
  endloop
endfacet
facet normal -0.0 -0.0 1.0
  outer loop
    vertex 15.732341510647794 24.32220952256699 8.000000000000009
    vertex 17.776758893063707 17.392554076369557 8.000000000000012
    vertex 15.732341510647794 25.52220952256699 8.000000000000009
  endloop
endfacet
facet normal -0.0 -0.0 1.0
  outer loop
    vertex 15.732341510647794 25.52220952256699 8.000000000000009
    vertex 13.832341510647792 27.42220952256699 8.000000000000009
    vertex 13.832341510647792 25.52220952256699 8.000000000000009
  endloop
endfacet
facet normal -0.0 -0.0 1.0
  outer loop
    vertex 13.832341510647792 27.42220952256699 8.000000000000009
    vertex 15.732341510647794 25.52220952256699 8.000000000000009
    vertex 15.645000284300533 33.58486829621973 8.000000000000012
  endloop
endfacet
facet normal -0.0 -0.0 1.0
  outer loop
    vertex 15.645000284300533 33.58486829621973 8.000000000000012
    vertex 15.732341510647794 25.52220952256699 8.000000000000009
    vertex 17.776758893063715 32.701864968764426 8.000000000000012
  endloop
endfacet
facet normal -0.0 -0.0 1.0
  outer loop
    vertex 17.776758893063715 32.701864968764426 8.000000000000012
    vertex 15.732341510647794 25.52220952256699 8.000000000000009
    vertex 17.776758893063707 17.392554076369557 8.000000000000012
  endloop
endfacet
facet normal -0.0 -0.0 1.0
  outer loop
    vertex 17.776758893063715 32.701864968764426 8.000000000000012
    vertex 17.776758893063707 17.392554076369557 8.000000000000012
    vertex 19.607341510647792 18.79720952256699 8.000000000000012
  endloop
endfacet
facet normal -0.0 -0.0 1.0
  outer loop
    vertex 17.776758893063715 32.701864968764426 8.000000000000012
    vertex 19.607341510647792 18.79720952256699 8.000000000000012
    vertex 19.607341510647792 31.297209522566988 8.000000000000012
  endloop
endfacet
facet normal -0.0 -0.0 1.0
  outer loop
    vertex 19.607341510647792 31.297209522566988 8.000000000000012
    vertex 19.607341510647792 18.79720952256699 8.000000000000012
    vertex 21.01199695684522 20.62779214015106 8.000000000000012
  endloop
endfacet
facet normal -0.0 -0.0 1.0
  outer loop
    vertex 19.607341510647792 31.297209522566988 8.000000000000012
    vertex 21.01199695684522 20.62779214015106 8.000000000000012
    vertex 21.011996956845227 29.466626904982906 8.000000000000012
  endloop
endfacet
facet normal -0.0 -0.0 1.0
  outer loop
    vertex 21.011996956845227 29.466626904982906 8.000000000000012
    vertex 21.01199695684522 20.62779214015106 8.000000000000012
    vertex 21.895000284300533 22.75955074891424 8.000000000000012
  endloop
endfacet
facet normal -0.0 -0.0 1.0
  outer loop
    vertex 21.011996956845227 29.466626904982906 8.000000000000012
    vertex 21.895000284300533 22.75955074891424 8.000000000000012
    vertex 21.895000284300536 27.334868296219728 8.000000000000012
  endloop
endfacet
facet normal -0.0 -0.0 1.0
  outer loop
    vertex 21.895000284300536 27.334868296219728 8.000000000000012
    vertex 21.895000284300533 22.75955074891424 8.000000000000012
    vertex 22.196176275479637 25.04720952256699 8.000000000000012
  endloop
endfacet
facet normal -0.0 -0.0 1.0
  outer loop
    vertex 8.937924128231872 32.701864968764426 8.000000000000012
    vertex 10.732341510647794 25.52220952256699 8.000000000000009
    vertex 11.069682736995052 33.58486829621973 8.000000000000012
  endloop
endfacet
facet normal -0.0 -0.0 1.0
  outer loop
    vertex 10.732341510647794 25.52220952256699 8.000000000000009
    vertex 8.937924128231872 32.701864968764426 8.000000000000012
    vertex 10.732341510647794 24.32220952256699 8.000000000000009
  endloop
endfacet
facet normal -0.0 -0.0 1.0
  outer loop
    vertex 11.069682736995052 33.58486829621973 8.000000000000012
    vertex 10.732341510647794 25.52220952256699 8.000000000000009
    vertex 12.632341510647793 25.52220952256699 8.000000000000009
  endloop
endfacet
facet normal -0.0 -0.0 1.0
  outer loop
    vertex 11.069682736995052 33.58486829621973 8.000000000000012
    vertex 12.632341510647793 25.52220952256699 8.000000000000009
    vertex 12.632341510647793 27.42220952256699 8.000000000000009
  endloop
endfacet
facet normal -0.0 -0.0 1.0
  outer loop
    vertex 11.069682736995052 33.58486829621973 8.000000000000012
    vertex 12.632341510647793 27.42220952256699 8.000000000000009
    vertex 13.357341510647792 33.88604428739883 8.000000000000012
  endloop
endfacet
facet normal -0.0 -0.0 1.0
  outer loop
    vertex 13.357341510647792 33.88604428739883 8.000000000000012
    vertex 12.632341510647793 27.42220952256699 8.000000000000009
    vertex 13.832341510647792 27.42220952256699 8.000000000000009
  endloop
endfacet
facet normal -0.0 -0.0 1.0
  outer loop
    vertex 13.357341510647792 33.88604428739883 8.000000000000012
    vertex 13.832341510647792 27.42220952256699 8.000000000000009
    vertex 15.645000284300533 33.58486829621973 8.000000000000012
  endloop
endfacet
facet normal -0.0 -0.0 1.0
  outer loop
    vertex 4.819682736995048 22.75955074891425 8.000000000000012
    vertex 4.819682736995052 27.33486829621973 8.000000000000012
    vertex 4.518506745815949 25.04720952256699 8.000000000000012
  endloop
endfacet
facet normal -0.0 -0.0 1.0
  outer loop
    vertex 4.819682736995052 27.33486829621973 8.000000000000012
    vertex 4.819682736995048 22.75955074891425 8.000000000000012
    vertex 5.70268606445036 20.62779214015107 8.000000000000012
  endloop
endfacet
facet normal -0.0 -0.0 1.0
  outer loop
    vertex 4.819682736995052 27.33486829621973 8.000000000000012
    vertex 5.70268606445036 20.62779214015107 8.000000000000012
    vertex 5.702686064450361 29.46662690498291 8.000000000000012
  endloop
endfacet
facet normal -0.0 -0.0 1.0
  outer loop
    vertex 5.702686064450361 29.46662690498291 8.000000000000012
    vertex 5.70268606445036 20.62779214015107 8.000000000000012
    vertex 7.107341510647792 18.79720952256699 8.000000000000012
  endloop
endfacet
facet normal -0.0 -0.0 1.0
  outer loop
    vertex 5.702686064450361 29.46662690498291 8.000000000000012
    vertex 7.107341510647792 18.79720952256699 8.000000000000012
    vertex 7.107341510647792 31.297209522566988 8.000000000000012
  endloop
endfacet
facet normal -0.0 -0.0 1.0
  outer loop
    vertex 7.107341510647792 31.297209522566988 8.000000000000012
    vertex 7.107341510647792 18.79720952256699 8.000000000000012
    vertex 8.937924128231867 17.39255407636956 8.000000000000012
  endloop
endfacet
facet normal -0.0 -0.0 1.0
  outer loop
    vertex 7.107341510647792 31.297209522566988 8.000000000000012
    vertex 8.937924128231867 17.39255407636956 8.000000000000012
    vertex 8.937924128231872 32.701864968764426 8.000000000000012
  endloop
endfacet
facet normal -0.0 -0.0 1.0
  outer loop
    vertex 8.937924128231872 32.701864968764426 8.000000000000012
    vertex 8.937924128231867 17.39255407636956 8.000000000000012
    vertex 11.069682736995048 16.50955074891425 8.000000000000012
  endloop
endfacet
facet normal -0.0 -0.0 1.0
  outer loop
    vertex 8.937924128231872 32.701864968764426 8.000000000000012
    vertex 11.069682736995048 16.50955074891425 8.000000000000012
    vertex 10.732341510647794 24.32220952256699 8.000000000000009
  endloop
endfacet
facet normal -0.0 -0.0 1.0
  outer loop
    vertex 10.732341510647794 24.32220952256699 8.000000000000009
    vertex 11.069682736995048 16.50955074891425 8.000000000000012
    vertex 12.632341510647793 24.32220952256699 8.000000000000009
  endloop
endfacet
facet normal -0.0 -0.0 1.0
  outer loop
    vertex 12.632341510647793 24.32220952256699 8.000000000000009
    vertex 11.069682736995048 16.50955074891425 8.000000000000012
    vertex 12.632341510647793 22.422209522566988 8.000000000000009
  endloop
endfacet
facet normal -1.0 0.0 0.0
  outer loop
    vertex 15.732341510647794 25.52220952256699 8.000000000000009
    vertex 15.732341510647794 24.32220952256699 7.00000000000001
    vertex 15.732341510647794 24.32220952256699 8.000000000000009
  endloop
endfacet
facet normal -1.0 0.0 0.0
  outer loop
    vertex 15.732341510647794 24.32220952256699 7.00000000000001
    vertex 15.732341510647794 25.52220952256699 8.000000000000009
    vertex 15.732341510647794 25.52220952256699 7.00000000000001
  endloop
endfacet
facet normal -0.4978474333382838 -0.4978474333382841 -0.7101379205738599
  outer loop
    vertex 7.820549888375156 19.510417900294353 4.000000000000014
    vertex 8.937924128231867 17.39255407636956 5.000000000000013
    vertex 7.107341510647792 18.79720952256699 5.000000000000013
  endloop
endfacet
facet normal -0.3520312961098181 -0.609736090716529 -0.7101379205738604
  outer loop
    vertex 8.937924128231867 17.39255407636956 5.000000000000013
    vertex 7.820549888375156 19.510417900294353 4.000000000000014
    vertex 9.442238608521935 18.266052379224675 4.000000000000014
  endloop
endfacet
facet normal -0.6097360907165287 -0.3520312961098185 -0.7101379205738605
  outer loop
    vertex 6.576184367305471 21.132106620441135 4.000000000000014
    vertex 7.107341510647792 18.79720952256699 5.000000000000013
    vertex 5.70268606445036 20.62779214015107 5.000000000000013
  endloop
endfacet
facet normal -0.49784743333828385 -0.49784743333828413 -0.71013792057386
  outer loop
    vertex 7.107341510647792 18.79720952256699 5.000000000000013
    vertex 6.576184367305471 21.132106620441135 4.000000000000014
    vertex 7.820549888375156 19.510417900294353 4.000000000000014
  endloop
endfacet
facet normal -0.6800722411489754 -0.18222480781069073 -0.7101379205738607
  outer loop
    vertex 5.793943499162515 23.020603133354367 4.000000000000014
    vertex 5.70268606445036 20.62779214015107 5.000000000000013
    vertex 4.819682736995048 22.75955074891425 5.000000000000013
  endloop
endfacet
facet normal -0.6097360907165291 -0.35203129610981776 -0.7101379205738605
  outer loop
    vertex 5.70268606445036 20.62779214015107 5.000000000000013
    vertex 5.793943499162515 23.020603133354367 4.000000000000014
    vertex 6.576184367305471 21.132106620441135 4.000000000000014
  endloop
endfacet
facet normal -0.7040625922196362 5.026604972219244e-16 -0.7101379205738605
  outer loop
    vertex 5.527135706396101 25.04720952256699 4.000000000000014
    vertex 4.819682736995048 22.75955074891425 5.000000000000013
    vertex 4.518506745815949 25.04720952256699 5.000000000000013
  endloop
endfacet
facet normal -0.6800722411489751 -0.18222480781069164 -0.7101379205738607
  outer loop
    vertex 4.819682736995048 22.75955074891425 5.000000000000013
    vertex 5.527135706396101 25.04720952256699 4.000000000000014
    vertex 5.793943499162515 23.020603133354367 4.000000000000014
  endloop
endfacet
facet normal -0.6800722411489755 0.18222480781069156 -0.7101379205738602
  outer loop
    vertex 4.819682736995052 27.33486829621973 5.000000000000013
    vertex 5.527135706396101 25.04720952256699 4.000000000000014
    vertex 4.518506745815949 25.04720952256699 5.000000000000013
  endloop
endfacet
facet normal -0.7040625922196362 5.026604972219244e-16 -0.7101379205738605
  outer loop
    vertex 5.527135706396101 25.04720952256699 4.000000000000014
    vertex 4.819682736995052 27.33486829621973 5.000000000000013
    vertex 5.793943499162523 27.07381591177964 4.000000000000014
  endloop
endfacet
facet normal -0.6097360907165292 0.3520312961098183 -0.71013792057386
  outer loop
    vertex 5.702686064450361 29.46662690498291 5.000000000000013
    vertex 5.793943499162523 27.07381591177964 4.000000000000014
    vertex 4.819682736995052 27.33486829621973 5.000000000000013
  endloop
endfacet
facet normal -0.6800722411489752 0.1822248078106926 -0.7101379205738602
  outer loop
    vertex 5.793943499162523 27.07381591177964 4.000000000000014
    vertex 5.702686064450361 29.46662690498291 5.000000000000013
    vertex 6.576184367305467 28.962312424692836 4.000000000000014
  endloop
endfacet
facet normal -0.18222480781069128 0.6800722411489764 -0.7101379205738594
  outer loop
    vertex 11.069682736995052 33.58486829621973 5.000000000000013
    vertex 9.442238608521956 31.82836666590932 4.000000000000014
    vertex 8.937924128231872 32.701864968764426 5.000000000000013
  endloop
endfacet
facet normal -0.35203129610981826 0.6097360907165293 -0.7101379205738598
  outer loop
    vertex 9.442238608521956 31.82836666590932 4.000000000000014
    vertex 11.069682736995052 33.58486829621973 5.000000000000013
    vertex 11.330735121435143 32.610607534052264 4.000000000000014
  endloop
endfacet
facet normal 1.5088006869962197e-16 0.7040625922196367 -0.7101379205738598
  outer loop
    vertex 13.357341510647792 33.88604428739883 5.000000000000013
    vertex 11.330735121435143 32.610607534052264 4.000000000000014
    vertex 11.069682736995052 33.58486829621973 5.000000000000013
  endloop
endfacet
facet normal -0.1822248078106922 0.6800722411489762 -0.7101379205738595
  outer loop
    vertex 11.330735121435143 32.610607534052264 4.000000000000014
    vertex 13.357341510647792 33.88604428739883 5.000000000000013
    vertex 13.357341510647789 32.87741532681868 4.000000000000014
  endloop
endfacet
facet normal 1.5088006869962197e-16 0.7040625922196367 -0.7101379205738598
  outer loop
    vertex 13.357341510647792 33.88604428739883 5.000000000000013
    vertex 15.38394789986043 32.610607534052264 4.000000000000014
    vertex 13.357341510647789 32.87741532681868 4.000000000000014
  endloop
endfacet
facet normal 0.1822248078106912 0.6800722411489759 -0.7101379205738598
  outer loop
    vertex 15.38394789986043 32.610607534052264 4.000000000000014
    vertex 13.357341510647792 33.88604428739883 5.000000000000013
    vertex 15.645000284300533 33.58486829621973 5.000000000000013
  endloop
endfacet
facet normal 0.18222480781069123 0.6800722411489759 -0.7101379205738598
  outer loop
    vertex 15.645000284300533 33.58486829621973 5.000000000000013
    vertex 17.272444412773616 31.82836666590933 4.000000000000014
    vertex 15.38394789986043 32.610607534052264 4.000000000000014
  endloop
endfacet
facet normal 0.35203129610981715 0.6097360907165295 -0.7101379205738605
  outer loop
    vertex 17.272444412773616 31.82836666590933 4.000000000000014
    vertex 15.645000284300533 33.58486829621973 5.000000000000013
    vertex 17.776758893063715 32.701864968764426 5.000000000000013
  endloop
endfacet
facet normal 0.3520312961098187 0.6097360907165285 -0.7101379205738606
  outer loop
    vertex 17.776758893063715 32.701864968764426 5.000000000000013
    vertex 18.894133132920434 30.58400114483962 4.000000000000014
    vertex 17.272444412773616 31.82836666590933 4.000000000000014
  endloop
endfacet
facet normal 0.49784743333828413 0.49784743333828324 -0.7101379205738602
  outer loop
    vertex 18.894133132920434 30.58400114483962 4.000000000000014
    vertex 17.776758893063715 32.701864968764426 5.000000000000013
    vertex 19.607341510647792 31.297209522566988 5.000000000000013
  endloop
endfacet
facet normal 0.4978474333382837 0.49784743333828385 -0.7101379205738603
  outer loop
    vertex 19.607341510647792 31.297209522566988 5.000000000000013
    vertex 20.138498653990112 28.962312424692843 4.000000000000014
    vertex 18.894133132920434 30.58400114483962 4.000000000000014
  endloop
endfacet
facet normal 0.6097360907165291 0.3520312961098189 -0.7101379205738599
  outer loop
    vertex 20.138498653990112 28.962312424692843 4.000000000000014
    vertex 19.607341510647792 31.297209522566988 5.000000000000013
    vertex 21.011996956845227 29.466626904982906 5.000000000000013
  endloop
endfacet
facet normal 0.6097360907165297 0.3520312961098177 -0.7101379205738598
  outer loop
    vertex 21.011996956845227 29.466626904982906 5.000000000000013
    vertex 20.920739522133072 27.073815911779615 4.000000000000014
    vertex 20.138498653990112 28.962312424692843 4.000000000000014
  endloop
endfacet
facet normal 0.6800722411489758 0.1822248078106909 -0.71013792057386
  outer loop
    vertex 20.920739522133072 27.073815911779615 4.000000000000014
    vertex 21.011996956845227 29.466626904982906 5.000000000000013
    vertex 21.895000284300536 27.334868296219728 5.000000000000013
  endloop
endfacet
facet normal 0.6800722411489756 0.1822248078106918 -0.7101379205738602
  outer loop
    vertex 21.895000284300536 27.334868296219728 5.000000000000013
    vertex 21.187547314899483 25.04720952256699 4.000000000000014
    vertex 20.920739522133072 27.073815911779615 4.000000000000014
  endloop
endfacet
facet normal 0.7040625922196369 -2.010641988887699e-16 -0.7101379205738596
  outer loop
    vertex 21.187547314899483 25.04720952256699 4.000000000000014
    vertex 21.895000284300536 27.334868296219728 5.000000000000013
    vertex 22.196176275479637 25.04720952256699 5.000000000000013
  endloop
endfacet
facet normal 0.7040625922196369 -2.010641988887699e-16 -0.7101379205738596
  outer loop
    vertex 21.187547314899483 25.04720952256699 4.000000000000014
    vertex 21.895000284300533 22.75955074891424 5.000000000000013
    vertex 20.92073952213307 23.020603133354353 4.000000000000014
  endloop
endfacet
facet normal 0.6800722411489756 -0.18222480781069242 -0.71013792057386
  outer loop
    vertex 21.895000284300533 22.75955074891424 5.000000000000013
    vertex 21.187547314899483 25.04720952256699 4.000000000000014
    vertex 22.196176275479637 25.04720952256699 5.000000000000013
  endloop
endfacet
facet normal 0.6800722411489757 -0.1822248078106918 -0.71013792057386
  outer loop
    vertex 20.92073952213307 23.020603133354353 4.000000000000014
    vertex 21.01199695684522 20.62779214015106 5.000000000000013
    vertex 20.138498653990112 21.13210662044114 4.000000000000014
  endloop
endfacet
facet normal 0.6097360907165291 -0.3520312961098187 -0.7101379205738598
  outer loop
    vertex 21.01199695684522 20.62779214015106 5.000000000000013
    vertex 20.92073952213307 23.020603133354353 4.000000000000014
    vertex 21.895000284300533 22.75955074891424 5.000000000000013
  endloop
endfacet
facet normal 0.609736090716529 -0.35203129610981876 -0.7101379205738598
  outer loop
    vertex 20.138498653990112 21.13210662044114 4.000000000000014
    vertex 19.607341510647792 18.79720952256699 5.000000000000013
    vertex 18.89413313292043 19.510417900294353 4.000000000000014
  endloop
endfacet
facet normal 0.497847433338284 -0.4978474333382843 -0.7101379205738598
  outer loop
    vertex 19.607341510647792 18.79720952256699 5.000000000000013
    vertex 20.138498653990112 21.13210662044114 4.000000000000014
    vertex 21.01199695684522 20.62779214015106 5.000000000000013
  endloop
endfacet
facet normal 0.497847433338284 -0.49784743333828413 -0.7101379205738596
  outer loop
    vertex 18.89413313292043 19.510417900294353 4.000000000000014
    vertex 17.776758893063707 17.392554076369557 5.000000000000013
    vertex 17.27244441277364 18.266052379224664 4.000000000000014
  endloop
endfacet
facet normal 0.35203129610981787 -0.6097360907165297 -0.7101379205738598
  outer loop
    vertex 17.776758893063707 17.392554076369557 5.000000000000013
    vertex 18.89413313292043 19.510417900294353 4.000000000000014
    vertex 19.607341510647792 18.79720952256699 5.000000000000013
  endloop
endfacet
facet normal 0.3520312961098185 -0.6097360907165293 -0.7101379205738599
  outer loop
    vertex 17.27244441277364 18.266052379224664 4.000000000000014
    vertex 15.645000284300528 16.509550748914247 5.000000000000013
    vertex 15.383947899860425 17.483811511081715 4.000000000000014
  endloop
endfacet
facet normal 0.1822248078106917 -0.6800722411489761 -0.7101379205738597
  outer loop
    vertex 15.645000284300528 16.509550748914247 5.000000000000013
    vertex 17.27244441277364 18.266052379224664 4.000000000000014
    vertex 17.776758893063707 17.392554076369557 5.000000000000013
  endloop
endfacet
facet normal -8.37767495369874e-18 -0.7040625922196371 -0.7101379205738596
  outer loop
    vertex 13.357341510647794 17.217003718315297 4.000000000000014
    vertex 15.645000284300528 16.509550748914247 5.000000000000013
    vertex 13.357341510647787 16.208374757735147 5.000000000000013
  endloop
endfacet
facet normal 0.1822248078106917 -0.6800722411489761 -0.7101379205738597
  outer loop
    vertex 15.645000284300528 16.509550748914247 5.000000000000013
    vertex 13.357341510647794 17.217003718315297 4.000000000000014
    vertex 15.383947899860425 17.483811511081715 4.000000000000014
  endloop
endfacet
facet normal -0.18222480781069245 -0.6800722411489755 -0.7101379205738603
  outer loop
    vertex 11.330735121435152 17.483811511081715 4.000000000000014
    vertex 13.357341510647787 16.208374757735147 5.000000000000013
    vertex 11.069682736995048 16.50955074891425 5.000000000000013
  endloop
endfacet
facet normal -6.695303048545729e-16 -0.7040625922196371 -0.7101379205738596
  outer loop
    vertex 13.357341510647787 16.208374757735147 5.000000000000013
    vertex 11.330735121435152 17.483811511081715 4.000000000000014
    vertex 13.357341510647794 17.217003718315297 4.000000000000014
  endloop
endfacet
facet normal -0.35203129610981887 -0.6097360907165286 -0.7101379205738605
  outer loop
    vertex 9.442238608521935 18.266052379224675 4.000000000000014
    vertex 11.069682736995048 16.50955074891425 5.000000000000013
    vertex 8.937924128231867 17.39255407636956 5.000000000000013
  endloop
endfacet
facet normal -0.18222480781069242 -0.6800722411489755 -0.7101379205738602
  outer loop
    vertex 11.069682736995048 16.50955074891425 5.000000000000013
    vertex 9.442238608521935 18.266052379224675 4.000000000000014
    vertex 11.330735121435152 17.483811511081715 4.000000000000014
  endloop
endfacet
facet normal -0.4978474333382836 0.49784743333828374 -0.7101379205738603
  outer loop
    vertex 7.107341510647792 31.297209522566988 5.000000000000013
    vertex 6.576184367305467 28.962312424692836 4.000000000000014
    vertex 5.702686064450361 29.46662690498291 5.000000000000013
  endloop
endfacet
facet normal -0.6097360907165291 0.3520312961098186 -0.71013792057386
  outer loop
    vertex 6.576184367305467 28.962312424692836 4.000000000000014
    vertex 7.107341510647792 31.297209522566988 5.000000000000013
    vertex 7.820549888375154 30.58400114483962 4.000000000000014
  endloop
endfacet
facet normal -0.352031296109819 0.609736090716529 -0.7101379205738598
  outer loop
    vertex 8.937924128231872 32.701864968764426 5.000000000000013
    vertex 7.820549888375154 30.58400114483962 4.000000000000014
    vertex 7.107341510647792 31.297209522566988 5.000000000000013
  endloop
endfacet
facet normal -0.497847433338284 0.49784743333828335 -0.7101379205738602
  outer loop
    vertex 7.820549888375154 30.58400114483962 4.000000000000014
    vertex 8.937924128231872 32.701864968764426 5.000000000000013
    vertex 9.442238608521956 31.82836666590932 4.000000000000014
  endloop
endfacet
facet normal 0.0 0.0 -1.0
  outer loop
    vertex 5.793943499162523 27.07381591177964 4.000000000000014
    vertex 5.793943499162515 23.020603133354367 4.000000000000014
    vertex 5.527135706396101 25.04720952256699 4.000000000000014
  endloop
endfacet
facet normal 0.0 0.0 -1.0
  outer loop
    vertex 5.793943499162515 23.020603133354367 4.000000000000014
    vertex 5.793943499162523 27.07381591177964 4.000000000000014
    vertex 6.576184367305471 21.132106620441135 4.000000000000014
  endloop
endfacet
facet normal 0.0 0.0 -1.0
  outer loop
    vertex 6.576184367305471 21.132106620441135 4.000000000000014
    vertex 5.793943499162523 27.07381591177964 4.000000000000014
    vertex 6.576184367305467 28.962312424692836 4.000000000000014
  endloop
endfacet
facet normal 0.0 0.0 -1.0
  outer loop
    vertex 6.576184367305471 21.132106620441135 4.000000000000014
    vertex 6.576184367305467 28.962312424692836 4.000000000000014
    vertex 7.820549888375154 30.58400114483962 4.000000000000014
  endloop
endfacet
facet normal 0.0 0.0 -1.0
  outer loop
    vertex 6.576184367305471 21.132106620441135 4.000000000000014
    vertex 7.820549888375154 30.58400114483962 4.000000000000014
    vertex 7.820549888375156 19.510417900294353 4.000000000000014
  endloop
endfacet
facet normal 0.0 0.0 -1.0
  outer loop
    vertex 7.820549888375156 19.510417900294353 4.000000000000014
    vertex 7.820549888375154 30.58400114483962 4.000000000000014
    vertex 9.442238608521956 31.82836666590932 4.000000000000014
  endloop
endfacet
facet normal 0.0 0.0 -1.0
  outer loop
    vertex 7.820549888375156 19.510417900294353 4.000000000000014
    vertex 9.442238608521956 31.82836666590932 4.000000000000014
    vertex 9.442238608521935 18.266052379224675 4.000000000000014
  endloop
endfacet
facet normal 0.0 0.0 -1.0
  outer loop
    vertex 9.442238608521935 18.266052379224675 4.000000000000014
    vertex 9.442238608521956 31.82836666590932 4.000000000000014
    vertex 11.330735121435152 17.483811511081715 4.000000000000014
  endloop
endfacet
facet normal 0.0 0.0 -1.0
  outer loop
    vertex 11.330735121435152 17.483811511081715 4.000000000000014
    vertex 9.442238608521956 31.82836666590932 4.000000000000014
    vertex 11.330735121435143 32.610607534052264 4.000000000000014
  endloop
endfacet
facet normal 0.0 0.0 -1.0
  outer loop
    vertex 11.330735121435152 17.483811511081715 4.000000000000014
    vertex 11.330735121435143 32.610607534052264 4.000000000000014
    vertex 13.357341510647789 32.87741532681868 4.000000000000014
  endloop
endfacet
facet normal 0.0 0.0 -1.0
  outer loop
    vertex 11.330735121435152 17.483811511081715 4.000000000000014
    vertex 13.357341510647789 32.87741532681868 4.000000000000014
    vertex 13.357341510647794 17.217003718315297 4.000000000000014
  endloop
endfacet
facet normal 0.0 0.0 -1.0
  outer loop
    vertex 13.357341510647794 17.217003718315297 4.000000000000014
    vertex 13.357341510647789 32.87741532681868 4.000000000000014
    vertex 15.38394789986043 32.610607534052264 4.000000000000014
  endloop
endfacet
facet normal 0.0 0.0 -1.0
  outer loop
    vertex 13.357341510647794 17.217003718315297 4.000000000000014
    vertex 15.38394789986043 32.610607534052264 4.000000000000014
    vertex 15.383947899860425 17.483811511081715 4.000000000000014
  endloop
endfacet
facet normal 0.0 0.0 -1.0
  outer loop
    vertex 15.383947899860425 17.483811511081715 4.000000000000014
    vertex 15.38394789986043 32.610607534052264 4.000000000000014
    vertex 17.27244441277364 18.266052379224664 4.000000000000014
  endloop
endfacet
facet normal 0.0 0.0 -1.0
  outer loop
    vertex 17.27244441277364 18.266052379224664 4.000000000000014
    vertex 15.38394789986043 32.610607534052264 4.000000000000014
    vertex 17.272444412773616 31.82836666590933 4.000000000000014
  endloop
endfacet
facet normal 0.0 0.0 -1.0
  outer loop
    vertex 17.27244441277364 18.266052379224664 4.000000000000014
    vertex 17.272444412773616 31.82836666590933 4.000000000000014
    vertex 18.894133132920434 30.58400114483962 4.000000000000014
  endloop
endfacet
facet normal 0.0 0.0 -1.0
  outer loop
    vertex 17.27244441277364 18.266052379224664 4.000000000000014
    vertex 18.894133132920434 30.58400114483962 4.000000000000014
    vertex 18.89413313292043 19.510417900294353 4.000000000000014
  endloop
endfacet
facet normal 0.0 0.0 -1.0
  outer loop
    vertex 18.89413313292043 19.510417900294353 4.000000000000014
    vertex 18.894133132920434 30.58400114483962 4.000000000000014
    vertex 20.138498653990112 21.13210662044114 4.000000000000014
  endloop
endfacet
facet normal 0.0 0.0 -1.0
  outer loop
    vertex 20.138498653990112 21.13210662044114 4.000000000000014
    vertex 18.894133132920434 30.58400114483962 4.000000000000014
    vertex 20.138498653990112 28.962312424692843 4.000000000000014
  endloop
endfacet
facet normal 0.0 0.0 -1.0
  outer loop
    vertex 20.138498653990112 21.13210662044114 4.000000000000014
    vertex 20.138498653990112 28.962312424692843 4.000000000000014
    vertex 20.920739522133072 27.073815911779615 4.000000000000014
  endloop
endfacet
facet normal 0.0 0.0 -1.0
  outer loop
    vertex 20.138498653990112 21.13210662044114 4.000000000000014
    vertex 20.920739522133072 27.073815911779615 4.000000000000014
    vertex 20.92073952213307 23.020603133354353 4.000000000000014
  endloop
endfacet
facet normal 0.0 0.0 -1.0
  outer loop
    vertex 20.92073952213307 23.020603133354353 4.000000000000014
    vertex 20.920739522133072 27.073815911779615 4.000000000000014
    vertex 21.187547314899483 25.04720952256699 4.000000000000014
  endloop
endfacet
facet normal 0.258819045102519 -0.9659258262890688 0.0
  outer loop
    vertex 13.944093884679727 22.26591350027205 12.00000000000001
    vertex 13.232341510647792 22.172209522566988 7.00000000000001
    vertex 13.944093884679727 22.26591350027205 7.00000000000001
  endloop
endfacet
facet normal -2.6733329686940707e-16 -1.0 -3.683551959265634e-19
  outer loop
    vertex 13.232341510647792 22.172209522566988 7.00000000000001
    vertex 13.944093884679727 22.26591350027205 12.00000000000001
    vertex 13.232341510647792 22.172209522566988 12.00000000000001
  endloop
endfacet
facet normal -0.0 1.0 -0.0
  outer loop
    vertex 13.832341510647792 24.32220952256699 12.00000000000001
    vertex 15.732341510647794 24.32220952256699 8.000000000000009
    vertex 13.832341510647792 24.32220952256699 8.000000000000009
  endloop
endfacet
facet normal -0.0 1.0 -0.0
  outer loop
    vertex 15.732341510647794 24.32220952256699 8.000000000000009
    vertex 13.832341510647792 24.32220952256699 12.00000000000001
    vertex 15.732341510647794 24.32220952256699 12.00000000000001
  endloop
endfacet
facet normal 0.5000000000000027 -0.8660254037844372 0.0
  outer loop
    vertex 14.607341510647796 22.54063966215978 12.00000000000001
    vertex 13.944093884679727 22.26591350027205 7.00000000000001
    vertex 14.607341510647796 22.54063966215978 7.00000000000001
  endloop
endfacet
facet normal 0.258819045102519 -0.9659258262890688 0.0
  outer loop
    vertex 13.944093884679727 22.26591350027205 7.00000000000001
    vertex 14.607341510647796 22.54063966215978 12.00000000000001
    vertex 13.944093884679727 22.26591350027205 12.00000000000001
  endloop
endfacet
facet normal 0.0 -1.0 0.0
  outer loop
    vertex 15.732341510647794 25.52220952256699 12.00000000000001
    vertex 13.832341510647792 25.52220952256699 8.000000000000009
    vertex 15.732341510647794 25.52220952256699 8.000000000000009
  endloop
endfacet
facet normal 0.0 -1.0 0.0
  outer loop
    vertex 13.832341510647792 25.52220952256699 8.000000000000009
    vertex 15.732341510647794 25.52220952256699 12.00000000000001
    vertex 13.832341510647792 25.52220952256699 12.00000000000001
  endloop
endfacet
facet normal 2.6733329686940707e-16 1.0 -3.683551959265634e-19
  outer loop
    vertex 13.232341510647792 27.67220952256699 12.00000000000001
    vertex 13.944093884679724 27.57850554486193 7.00000000000001
    vertex 13.232341510647792 27.67220952256699 7.00000000000001
  endloop
endfacet
facet normal 0.2588190451025193 0.9659258262890688 -3.6835519592656353e-19
  outer loop
    vertex 13.944093884679724 27.57850554486193 7.00000000000001
    vertex 13.232341510647792 27.67220952256699 12.00000000000001
    vertex 13.944093884679724 27.57850554486193 12.00000000000001
  endloop
endfacet
facet normal -0.5000000000000021 0.8660254037844375 1.7179727044898972e-18
  outer loop
    vertex 11.857341510647789 27.3037793829742 12.00000000000001
    vertex 12.520589136615857 27.57850554486193 7.00000000000001
    vertex 11.857341510647789 27.3037793829742 7.00000000000001
  endloop
endfacet
facet normal -0.258819045102519 0.9659258262890688 0.0
  outer loop
    vertex 12.520589136615857 27.57850554486193 7.00000000000001
    vertex 11.857341510647789 27.3037793829742 12.00000000000001
    vertex 12.520589136615857 27.57850554486193 12.00000000000001
  endloop
endfacet
facet normal -0.70710678118655 0.7071067811865451 1.717972704489896e-18
  outer loop
    vertex 11.287797862384785 26.866753170829995 12.00000000000001
    vertex 11.857341510647789 27.3037793829742 7.00000000000001
    vertex 11.287797862384785 26.866753170829995 7.00000000000001
  endloop
endfacet
facet normal -0.5000000000000021 0.8660254037844375 1.7179727044898972e-18
  outer loop
    vertex 11.857341510647789 27.3037793829742 7.00000000000001
    vertex 11.287797862384785 26.866753170829995 12.00000000000001
    vertex 11.857341510647789 27.3037793829742 12.00000000000001
  endloop
endfacet
facet normal -0.70710678118655 0.7071067811865451 1.717972704489896e-18
  outer loop
    vertex 11.287797862384785 26.866753170829995 12.00000000000001
    vertex 10.850771650240585 26.297209522566988 7.00000000000001
    vertex 10.850771650240585 26.297209522566988 12.00000000000001
  endloop
endfacet
facet normal -0.8660254037844393 0.49999999999999917 0.0
  outer loop
    vertex 10.850771650240585 26.297209522566988 7.00000000000001
    vertex 11.287797862384785 26.866753170829995 12.00000000000001
    vertex 11.287797862384785 26.866753170829995 7.00000000000001
  endloop
endfacet
facet normal -0.2588190451025193 -0.9659258262890688 -3.6835519592656353e-19
  outer loop
    vertex 12.520589136615861 22.26591350027205 12.00000000000001
    vertex 11.857341510647792 22.54063966215978 7.00000000000001
    vertex 12.520589136615861 22.26591350027205 7.00000000000001
  endloop
endfacet
facet normal -0.5000000000000016 -0.8660254037844377 0.0
  outer loop
    vertex 11.857341510647792 22.54063966215978 7.00000000000001
    vertex 12.520589136615861 22.26591350027205 12.00000000000001
    vertex 11.857341510647792 22.54063966215978 12.00000000000001
  endloop
endfacet
facet normal -1.0 5.1684437394752055e-16 7.952210962693559e-32
  outer loop
    vertex 10.482341510647792 24.92220952256699 12.00000000000001
    vertex 10.576045488352854 24.210457148535056 7.00000000000001
    vertex 10.576045488352854 24.210457148535056 12.00000000000001
  endloop
endfacet
facet normal -0.9659258262890682 -0.25881904510252074 1.303630407133229e-18
  outer loop
    vertex 10.576045488352854 24.210457148535056 7.00000000000001
    vertex 10.482341510647792 24.92220952256699 12.00000000000001
    vertex 10.482341510647792 24.92220952256699 7.00000000000001
  endloop
endfacet
facet normal 1.0 -0.0 -0.0
  outer loop
    vertex 10.732341510647794 25.52220952256699 8.000000000000009
    vertex 10.732341510647794 24.32220952256699 12.00000000000001
    vertex 10.732341510647794 24.32220952256699 8.000000000000009
  endloop
endfacet
facet normal 1.0 -0.0 -0.0
  outer loop
    vertex 10.732341510647794 24.32220952256699 12.00000000000001
    vertex 10.732341510647794 25.52220952256699 8.000000000000009
    vertex 10.732341510647794 25.52220952256699 12.00000000000001
  endloop
endfacet
facet normal 1.0 -0.0 -0.0
  outer loop
    vertex 12.632341510647793 27.42220952256699 8.000000000000009
    vertex 12.632341510647793 25.52220952256699 12.00000000000001
    vertex 12.632341510647793 25.52220952256699 8.000000000000009
  endloop
endfacet
facet normal 1.0 -0.0 -0.0
  outer loop
    vertex 12.632341510647793 25.52220952256699 12.00000000000001
    vertex 12.632341510647793 27.42220952256699 8.000000000000009
    vertex 12.632341510647793 27.42220952256699 12.00000000000001
  endloop
endfacet
facet normal -0.8660254037844393 0.49999999999999917 0.0
  outer loop
    vertex 10.850771650240585 26.297209522566988 12.00000000000001
    vertex 10.576045488352854 25.63396189659892 7.00000000000001
    vertex 10.576045488352854 25.63396189659892 12.00000000000001
  endloop
endfacet
facet normal -0.9659258262890684 0.2588190451025204 3.9761054813467783e-32
  outer loop
    vertex 10.576045488352854 25.63396189659892 7.00000000000001
    vertex 10.850771650240585 26.297209522566988 12.00000000000001
    vertex 10.850771650240585 26.297209522566988 7.00000000000001
  endloop
endfacet
facet normal 0.0 -1.0 0.0
  outer loop
    vertex 12.632341510647793 25.52220952256699 12.00000000000001
    vertex 10.732341510647794 25.52220952256699 8.000000000000009
    vertex 12.632341510647793 25.52220952256699 8.000000000000009
  endloop
endfacet
facet normal 0.0 -1.0 0.0
  outer loop
    vertex 10.732341510647794 25.52220952256699 8.000000000000009
    vertex 12.632341510647793 25.52220952256699 12.00000000000001
    vertex 10.732341510647794 25.52220952256699 12.00000000000001
  endloop
endfacet
facet normal -0.8660254037844376 -0.500000000000002 1.3036304071333509e-18
  outer loop
    vertex 10.850771650240587 23.547209522566988 12.00000000000001
    vertex 11.287797862384787 22.977665874303984 7.00000000000001
    vertex 11.287797862384787 22.977665874303984 12.00000000000001
  endloop
endfacet
facet normal -0.7071067811865478 -0.7071067811865472 1.612889669593101e-31
  outer loop
    vertex 11.287797862384787 22.977665874303984 7.00000000000001
    vertex 10.850771650240587 23.547209522566988 12.00000000000001
    vertex 10.850771650240587 23.547209522566988 7.00000000000001
  endloop
endfacet
facet normal -0.5000000000000016 -0.8660254037844377 0.0
  outer loop
    vertex 11.857341510647792 22.54063966215978 12.00000000000001
    vertex 11.287797862384787 22.977665874303984 7.00000000000001
    vertex 11.857341510647792 22.54063966215978 7.00000000000001
  endloop
endfacet
facet normal -0.7071067811865478 -0.7071067811865472 1.612889669593101e-31
  outer loop
    vertex 11.287797862384787 22.977665874303984 7.00000000000001
    vertex 11.857341510647792 22.54063966215978 12.00000000000001
    vertex 11.287797862384787 22.977665874303984 12.00000000000001
  endloop
endfacet
facet normal -0.9659258262890684 0.2588190451025204 3.9761054813467783e-32
  outer loop
    vertex 10.576045488352854 25.63396189659892 12.00000000000001
    vertex 10.482341510647792 24.92220952256699 7.00000000000001
    vertex 10.482341510647792 24.92220952256699 12.00000000000001
  endloop
endfacet
facet normal -1.0 5.1684437394752055e-16 7.952210962693559e-32
  outer loop
    vertex 10.482341510647792 24.92220952256699 7.00000000000001
    vertex 10.576045488352854 25.63396189659892 12.00000000000001
    vertex 10.576045488352854 25.63396189659892 7.00000000000001
  endloop
endfacet
facet normal -0.0 1.0 -0.0
  outer loop
    vertex 10.732341510647794 24.32220952256699 12.00000000000001
    vertex 12.632341510647793 24.32220952256699 8.000000000000009
    vertex 10.732341510647794 24.32220952256699 8.000000000000009
  endloop
endfacet
facet normal -0.0 1.0 -0.0
  outer loop
    vertex 12.632341510647793 24.32220952256699 8.000000000000009
    vertex 10.732341510647794 24.32220952256699 12.00000000000001
    vertex 12.632341510647793 24.32220952256699 12.00000000000001
  endloop
endfacet
facet normal -0.9659258262890682 -0.25881904510252074 1.303630407133229e-18
  outer loop
    vertex 10.576045488352854 24.210457148535056 12.00000000000001
    vertex 10.850771650240587 23.547209522566988 7.00000000000001
    vertex 10.850771650240587 23.547209522566988 12.00000000000001
  endloop
endfacet
facet normal -0.8660254037844376 -0.500000000000002 1.3036304071333509e-18
  outer loop
    vertex 10.850771650240587 23.547209522566988 7.00000000000001
    vertex 10.576045488352854 24.210457148535056 12.00000000000001
    vertex 10.576045488352854 24.210457148535056 7.00000000000001
  endloop
endfacet
facet normal -1.0 0.0 0.0
  outer loop
    vertex 13.832341510647792 24.32220952256699 8.000000000000009
    vertex 13.832341510647792 22.422209522566988 7.00000000000001
    vertex 13.832341510647792 22.422209522566988 8.000000000000009
  endloop
endfacet
facet normal -1.0 0.0 0.0
  outer loop
    vertex 13.832341510647792 22.422209522566988 7.00000000000001
    vertex 13.832341510647792 24.32220952256699 8.000000000000009
    vertex 13.832341510647792 24.32220952256699 7.00000000000001
  endloop
endfacet
facet normal -0.0 1.0 -0.0
  outer loop
    vertex 12.632341510647793 22.422209522566988 8.000000000000009
    vertex 13.832341510647792 22.422209522566988 7.00000000000001
    vertex 12.632341510647793 22.422209522566988 7.00000000000001
  endloop
endfacet
facet normal -0.0 1.0 -0.0
  outer loop
    vertex 13.832341510647792 22.422209522566988 7.00000000000001
    vertex 12.632341510647793 22.422209522566988 8.000000000000009
    vertex 13.832341510647792 22.422209522566988 8.000000000000009
  endloop
endfacet
facet normal 1.0 -0.0 -0.0
  outer loop
    vertex 12.632341510647793 24.32220952256699 7.00000000000001
    vertex 12.632341510647793 22.422209522566988 8.000000000000009
    vertex 12.632341510647793 22.422209522566988 7.00000000000001
  endloop
endfacet
facet normal 1.0 -0.0 -0.0
  outer loop
    vertex 12.632341510647793 22.422209522566988 8.000000000000009
    vertex 12.632341510647793 24.32220952256699 7.00000000000001
    vertex 12.632341510647793 24.32220952256699 8.000000000000009
  endloop
endfacet
facet normal -0.0 1.0 -0.0
  outer loop
    vertex 10.732341510647794 24.32220952256699 8.000000000000009
    vertex 12.632341510647793 24.32220952256699 7.00000000000001
    vertex 10.732341510647794 24.32220952256699 7.00000000000001
  endloop
endfacet
facet normal -0.0 1.0 -0.0
  outer loop
    vertex 12.632341510647793 24.32220952256699 7.00000000000001
    vertex 10.732341510647794 24.32220952256699 8.000000000000009
    vertex 12.632341510647793 24.32220952256699 8.000000000000009
  endloop
endfacet
facet normal 1.0 -0.0 -0.0
  outer loop
    vertex 10.732341510647794 25.52220952256699 7.00000000000001
    vertex 10.732341510647794 24.32220952256699 8.000000000000009
    vertex 10.732341510647794 24.32220952256699 7.00000000000001
  endloop
endfacet
facet normal 1.0 -0.0 -0.0
  outer loop
    vertex 10.732341510647794 24.32220952256699 8.000000000000009
    vertex 10.732341510647794 25.52220952256699 7.00000000000001
    vertex 10.732341510647794 25.52220952256699 8.000000000000009
  endloop
endfacet
facet normal 0.0 -1.0 0.0
  outer loop
    vertex 12.632341510647793 25.52220952256699 8.000000000000009
    vertex 10.732341510647794 25.52220952256699 7.00000000000001
    vertex 12.632341510647793 25.52220952256699 7.00000000000001
  endloop
endfacet
facet normal 0.0 -1.0 0.0
  outer loop
    vertex 10.732341510647794 25.52220952256699 7.00000000000001
    vertex 12.632341510647793 25.52220952256699 8.000000000000009
    vertex 10.732341510647794 25.52220952256699 8.000000000000009
  endloop
endfacet
facet normal 1.0 -0.0 -0.0
  outer loop
    vertex 12.632341510647793 27.42220952256699 7.00000000000001
    vertex 12.632341510647793 25.52220952256699 8.000000000000009
    vertex 12.632341510647793 25.52220952256699 7.00000000000001
  endloop
endfacet
facet normal 1.0 -0.0 -0.0
  outer loop
    vertex 12.632341510647793 25.52220952256699 8.000000000000009
    vertex 12.632341510647793 27.42220952256699 7.00000000000001
    vertex 12.632341510647793 27.42220952256699 8.000000000000009
  endloop
endfacet
facet normal 0.0 -1.0 0.0
  outer loop
    vertex 13.832341510647792 27.42220952256699 8.000000000000009
    vertex 12.632341510647793 27.42220952256699 7.00000000000001
    vertex 13.832341510647792 27.42220952256699 7.00000000000001
  endloop
endfacet
facet normal 0.0 -1.0 0.0
  outer loop
    vertex 12.632341510647793 27.42220952256699 7.00000000000001
    vertex 13.832341510647792 27.42220952256699 8.000000000000009
    vertex 12.632341510647793 27.42220952256699 8.000000000000009
  endloop
endfacet
facet normal -1.0 0.0 0.0
  outer loop
    vertex 13.832341510647792 27.42220952256699 8.000000000000009
    vertex 13.832341510647792 25.52220952256699 7.00000000000001
    vertex 13.832341510647792 25.52220952256699 8.000000000000009
  endloop
endfacet
facet normal -1.0 0.0 0.0
  outer loop
    vertex 13.832341510647792 25.52220952256699 7.00000000000001
    vertex 13.832341510647792 27.42220952256699 8.000000000000009
    vertex 13.832341510647792 27.42220952256699 7.00000000000001
  endloop
endfacet
facet normal -0.0 -0.0 1.0
  outer loop
    vertex 15.732341510647794 24.32220952256699 7.00000000000001
    vertex 13.832341510647792 25.52220952256699 7.00000000000001
    vertex 13.832341510647792 24.32220952256699 7.00000000000001
  endloop
endfacet
facet normal -0.0 -0.0 1.0
  outer loop
    vertex 13.832341510647792 25.52220952256699 7.00000000000001
    vertex 15.732341510647794 24.32220952256699 7.00000000000001
    vertex 15.732341510647794 25.52220952256699 7.00000000000001
  endloop
endfacet
facet normal -0.0 -0.0 1.0
  outer loop
    vertex 13.832341510647792 22.422209522566988 7.00000000000001
    vertex 12.632341510647793 24.32220952256699 7.00000000000001
    vertex 12.632341510647793 22.422209522566988 7.00000000000001
  endloop
endfacet
facet normal -0.0 -0.0 1.0
  outer loop
    vertex 12.632341510647793 24.32220952256699 7.00000000000001
    vertex 13.832341510647792 22.422209522566988 7.00000000000001
    vertex 12.632341510647793 25.52220952256699 7.00000000000001
  endloop
endfacet
facet normal -0.0 -0.0 1.0
  outer loop
    vertex 12.632341510647793 25.52220952256699 7.00000000000001
    vertex 13.832341510647792 22.422209522566988 7.00000000000001
    vertex 12.632341510647793 27.42220952256699 7.00000000000001
  endloop
endfacet
facet normal -0.0 -0.0 1.0
  outer loop
    vertex 12.632341510647793 27.42220952256699 7.00000000000001
    vertex 13.832341510647792 22.422209522566988 7.00000000000001
    vertex 13.832341510647792 27.42220952256699 7.00000000000001
  endloop
endfacet
facet normal -0.0 -0.0 1.0
  outer loop
    vertex 13.832341510647792 27.42220952256699 7.00000000000001
    vertex 13.832341510647792 22.422209522566988 7.00000000000001
    vertex 13.832341510647792 24.32220952256699 7.00000000000001
  endloop
endfacet
facet normal -0.0 -0.0 1.0
  outer loop
    vertex 13.832341510647792 27.42220952256699 7.00000000000001
    vertex 13.832341510647792 24.32220952256699 7.00000000000001
    vertex 13.832341510647792 25.52220952256699 7.00000000000001
  endloop
endfacet
facet normal -0.0 -0.0 1.0
  outer loop
    vertex 12.632341510647793 24.32220952256699 7.00000000000001
    vertex 10.732341510647794 25.52220952256699 7.00000000000001
    vertex 10.732341510647794 24.32220952256699 7.00000000000001
  endloop
endfacet
facet normal -0.0 -0.0 1.0
  outer loop
    vertex 10.732341510647794 25.52220952256699 7.00000000000001
    vertex 12.632341510647793 24.32220952256699 7.00000000000001
    vertex 12.632341510647793 25.52220952256699 7.00000000000001
  endloop
endfacet
facet normal -0.258819045102519 0.9659258262890688 0.0
  outer loop
    vertex 12.520589136615857 27.57850554486193 12.00000000000001
    vertex 13.232341510647792 27.67220952256699 7.00000000000001
    vertex 12.520589136615857 27.57850554486193 7.00000000000001
  endloop
endfacet
facet normal 2.6733329686940707e-16 1.0 -3.683551959265634e-19
  outer loop
    vertex 13.232341510647792 27.67220952256699 7.00000000000001
    vertex 12.520589136615857 27.57850554486193 12.00000000000001
    vertex 13.232341510647792 27.67220952256699 12.00000000000001
  endloop
endfacet
facet normal -2.6733329686940707e-16 -1.0 -3.683551959265634e-19
  outer loop
    vertex 13.232341510647792 22.172209522566988 12.00000000000001
    vertex 12.520589136615861 22.26591350027205 7.00000000000001
    vertex 13.232341510647792 22.172209522566988 7.00000000000001
  endloop
endfacet
facet normal -0.2588190451025193 -0.9659258262890688 -3.6835519592656353e-19
  outer loop
    vertex 12.520589136615861 22.26591350027205 7.00000000000001
    vertex 13.232341510647792 22.172209522566988 12.00000000000001
    vertex 12.520589136615861 22.26591350027205 12.00000000000001
  endloop
endfacet
facet normal -1.0 0.0 0.0
  outer loop
    vertex 13.832341510647792 24.32220952256699 12.00000000000001
    vertex 13.832341510647792 22.422209522566988 8.000000000000009
    vertex 13.832341510647792 22.422209522566988 12.00000000000001
  endloop
endfacet
facet normal -1.0 0.0 0.0
  outer loop
    vertex 13.832341510647792 22.422209522566988 8.000000000000009
    vertex 13.832341510647792 24.32220952256699 12.00000000000001
    vertex 13.832341510647792 24.32220952256699 8.000000000000009
  endloop
endfacet
facet normal -0.0 1.0 -0.0
  outer loop
    vertex 13.832341510647792 24.32220952256699 8.000000000000009
    vertex 15.732341510647794 24.32220952256699 7.00000000000001
    vertex 13.832341510647792 24.32220952256699 7.00000000000001
  endloop
endfacet
facet normal -0.0 1.0 -0.0
  outer loop
    vertex 15.732341510647794 24.32220952256699 7.00000000000001
    vertex 13.832341510647792 24.32220952256699 8.000000000000009
    vertex 15.732341510647794 24.32220952256699 8.000000000000009
  endloop
endfacet
facet normal 1.0 -0.0 -0.0
  outer loop
    vertex 12.632341510647793 24.32220952256699 8.000000000000009
    vertex 12.632341510647793 22.422209522566988 12.00000000000001
    vertex 12.632341510647793 22.422209522566988 8.000000000000009
  endloop
endfacet
facet normal 1.0 -0.0 -0.0
  outer loop
    vertex 12.632341510647793 22.422209522566988 12.00000000000001
    vertex 12.632341510647793 24.32220952256699 8.000000000000009
    vertex 12.632341510647793 24.32220952256699 12.00000000000001
  endloop
endfacet
facet normal 0.0 -1.0 0.0
  outer loop
    vertex 13.832341510647792 27.42220952256699 12.00000000000001
    vertex 12.632341510647793 27.42220952256699 8.000000000000009
    vertex 13.832341510647792 27.42220952256699 8.000000000000009
  endloop
endfacet
facet normal 0.0 -1.0 0.0
  outer loop
    vertex 12.632341510647793 27.42220952256699 8.000000000000009
    vertex 13.832341510647792 27.42220952256699 12.00000000000001
    vertex 12.632341510647793 27.42220952256699 12.00000000000001
  endloop
endfacet
facet normal -0.0 1.0 -0.0
  outer loop
    vertex 12.632341510647793 22.422209522566988 12.00000000000001
    vertex 13.832341510647792 22.422209522566988 8.000000000000009
    vertex 12.632341510647793 22.422209522566988 8.000000000000009
  endloop
endfacet
facet normal -0.0 1.0 -0.0
  outer loop
    vertex 13.832341510647792 22.422209522566988 8.000000000000009
    vertex 12.632341510647793 22.422209522566988 12.00000000000001
    vertex 13.832341510647792 22.422209522566988 12.00000000000001
  endloop
endfacet
facet normal -1.0 0.0 0.0
  outer loop
    vertex 13.832341510647792 27.42220952256699 12.00000000000001
    vertex 13.832341510647792 25.52220952256699 8.000000000000009
    vertex 13.832341510647792 25.52220952256699 12.00000000000001
  endloop
endfacet
facet normal -1.0 0.0 0.0
  outer loop
    vertex 13.832341510647792 25.52220952256699 8.000000000000009
    vertex 13.832341510647792 27.42220952256699 12.00000000000001
    vertex 13.832341510647792 27.42220952256699 8.000000000000009
  endloop
endfacet
facet normal 0.0 -1.0 0.0
  outer loop
    vertex 15.732341510647794 25.52220952256699 8.000000000000009
    vertex 13.832341510647792 25.52220952256699 7.00000000000001
    vertex 15.732341510647794 25.52220952256699 7.00000000000001
  endloop
endfacet
facet normal 0.0 -1.0 0.0
  outer loop
    vertex 13.832341510647792 25.52220952256699 7.00000000000001
    vertex 15.732341510647794 25.52220952256699 8.000000000000009
    vertex 13.832341510647792 25.52220952256699 8.000000000000009
  endloop
endfacet
endsolid test-key-cap-round
